<svg width="24" height="24" viewBox="0 0 24 24" fill="none" xmlns="http://www.w3.org/2000/svg">
<path d="M22 12C22 17.5228 17.5228 22 12 22C6.47715 22 2 17.5228 2 12C2 6.47715 6.47715 2 12 2C17.5228 2 22 6.47715 22 12ZM4 12C4 16.4183 7.58172 20 12 20C16.4183 20 20 16.4183 20 12C20 7.58172 16.4183 4 12 4C7.58172 4 4 7.58172 4 12Z" fill="black"/>
<mask id="mask0_1224_35800" style="mask-type:alpha" maskUnits="userSpaceOnUse" x="6" y="6" width="12" height="12">
<rect x="6" y="6" width="12" height="12" fill="#D9D9D9"/>
</mask>
<g mask="url(#mask0_1224_35800)">
<path d="M9 17V14.875C8.675 14.7333 8.38967 14.5438 8.144 14.3065C7.898 14.0688 7.68967 13.8 7.519 13.5C7.348 13.2 7.21883 12.8792 7.1315 12.5375C7.04383 12.1958 7 11.85 7 11.5C7 10.1833 7.46667 9.10417 8.4 8.2625C9.33333 7.42083 10.5333 7 12 7C13.4667 7 14.6667 7.42083 15.6 8.2625C16.5333 9.10417 17 10.1833 17 11.5C17 11.85 16.9563 12.1958 16.869 12.5375C16.7813 12.8792 16.6522 13.2 16.4815 13.5C16.3105 13.8 16.1022 14.0688 15.8565 14.3065C15.6105 14.5438 15.325 14.7333 15 14.875V17H9ZM10 16H10.5V17H11.5V16H12.5V17H13.5V16H14V14.225C14.3167 14.15 14.598 14.025 14.844 13.85C15.0897 13.675 15.298 13.4667 15.469 13.225C15.6397 12.9833 15.7708 12.7167 15.8625 12.425C15.9542 12.1333 16 11.825 16 11.5C16 10.4583 15.6313 9.61467 14.894 8.969C14.1563 8.323 13.1917 8 12 8C10.8083 8 9.84383 8.323 9.1065 8.969C8.36883 9.61467 8 10.4583 8 11.5C8 11.825 8.04583 12.1333 8.1375 12.425C8.22917 12.7167 8.36033 12.9833 8.531 13.225C8.702 13.4667 8.9125 13.675 9.1625 13.85C9.4125 14.025 9.69167 14.15 10 14.225V16ZM11.25 13.875H12.75L12 12.375L11.25 13.875ZM10.25 12.5C10.525 12.5 10.7605 12.402 10.9565 12.206C11.1522 12.0103 11.25 11.775 11.25 11.5C11.25 11.225 11.1522 10.9895 10.9565 10.7935C10.7605 10.5978 10.525 10.5 10.25 10.5C9.975 10.5 9.73967 10.5978 9.544 10.7935C9.348 10.9895 9.25 11.225 9.25 11.5C9.25 11.775 9.348 12.0103 9.544 12.206C9.73967 12.402 9.975 12.5 10.25 12.5ZM13.75 12.5C14.025 12.5 14.2605 12.402 14.4565 12.206C14.6522 12.0103 14.75 11.775 14.75 11.5C14.75 11.225 14.6522 10.9895 14.4565 10.7935C14.2605 10.5978 14.025 10.5 13.75 10.5C13.475 10.5 13.2397 10.5978 13.044 10.7935C12.848 10.9895 12.75 11.225 12.75 11.5C12.75 11.775 12.848 12.0103 13.044 12.206C13.2397 12.402 13.475 12.5 13.75 12.5ZM10 16V14.225C9.69167 14.15 9.4125 14.025 9.1625 13.85C8.9125 13.675 8.702 13.4667 8.531 13.225C8.36033 12.9833 8.22917 12.7167 8.1375 12.425C8.04583 12.1333 8 11.825 8 11.5C8 10.4583 8.36883 9.61467 9.1065 8.969C9.84383 8.323 10.8083 8 12 8C13.1917 8 14.1563 8.323 14.894 8.969C15.6313 9.61467 16 10.4583 16 11.5C16 11.825 15.9542 12.1333 15.8625 12.425C15.7708 12.7167 15.6397 12.9833 15.469 13.225C15.298 13.4667 15.0897 13.675 14.844 13.85C14.598 14.025 14.3167 14.15 14 14.225V16H10.5H10Z" fill="black"/>
</g>
</svg>
