<svg width="24" height="24" viewBox="0 0 24 24" fill="none" xmlns="http://www.w3.org/2000/svg">
<path d="M22 12C22 17.5228 17.5228 22 12 22C6.47715 22 2 17.5228 2 12C2 6.47715 6.47715 2 12 2C17.5228 2 22 6.47715 22 12ZM4 12C4 16.4183 7.58172 20 12 20C16.4183 20 20 16.4183 20 12C20 7.58172 16.4183 4 12 4C7.58172 4 4 7.58172 4 12Z" fill="#008000"/>
<path d="M12 6C10.6119 6 9.26668 6.48132 8.19364 7.36194C7.1206 8.24256 6.3861 9.468 6.11529 10.8295C5.84448 12.1909 6.05411 13.6042 6.70847 14.8284C7.36283 16.0526 8.42143 17.0121 9.7039 17.5433C10.9864 18.0745 12.4133 18.1446 13.7417 17.7416C15.0701 17.3387 16.2176 16.4876 16.9888 15.3334C17.76 14.1792 18.1072 12.7933 17.9711 11.4119C17.835 10.0304 17.2242 8.73892 16.2426 7.75736L12 12L12 6Z" fill="#008000"/>
</svg>
